<mxfile host="65bd71144e">
    <diagram id="45WitFHikevHjxbNmQfC" name="Page-1">
        <mxGraphModel dx="820" dy="491" grid="1" gridSize="10" guides="1" tooltips="1" connect="1" arrows="1" fold="1" page="1" pageScale="1" pageWidth="850" pageHeight="1100" math="0" shadow="0">
            <root>
                <mxCell id="0"/>
                <mxCell id="1" parent="0"/>
                <mxCell id="3" style="edgeStyle=none;html=1;entryX=0.5;entryY=0;entryDx=0;entryDy=0;" parent="1" source="2" target="4" edge="1">
                    <mxGeometry relative="1" as="geometry">
                        <mxPoint x="250" y="100" as="targetPoint"/>
                    </mxGeometry>
                </mxCell>
                <mxCell id="2" value="start" style="strokeWidth=2;html=1;shape=mxgraph.flowchart.terminator;whiteSpace=wrap;" parent="1" vertex="1">
                    <mxGeometry x="200" y="10" width="100" height="60" as="geometry"/>
                </mxCell>
                <mxCell id="HK7oCtvw7YqfgjNsX2Im-26" value="" style="edgeStyle=orthogonalEdgeStyle;rounded=0;orthogonalLoop=1;jettySize=auto;html=1;fontFamily=Helvetica;fontSize=12;" parent="1" source="4" target="HK7oCtvw7YqfgjNsX2Im-25" edge="1">
                    <mxGeometry relative="1" as="geometry"/>
                </mxCell>
                <mxCell id="4" value="t" style="shape=parallelogram;html=1;strokeWidth=2;perimeter=parallelogramPerimeter;whiteSpace=wrap;rounded=1;arcSize=12;size=0.23;" parent="1" vertex="1">
                    <mxGeometry x="200" y="110" width="100" height="60" as="geometry"/>
                </mxCell>
                <mxCell id="HK7oCtvw7YqfgjNsX2Im-28" value="" style="edgeStyle=orthogonalEdgeStyle;rounded=0;orthogonalLoop=1;jettySize=auto;html=1;fontFamily=Helvetica;fontSize=12;" parent="1" source="HK7oCtvw7YqfgjNsX2Im-25" target="HK7oCtvw7YqfgjNsX2Im-27" edge="1">
                    <mxGeometry relative="1" as="geometry"/>
                </mxCell>
                <mxCell id="HK7oCtvw7YqfgjNsX2Im-25" value="_ = 0" style="whiteSpace=wrap;html=1;strokeWidth=2;rounded=1;arcSize=12;" parent="1" vertex="1">
                    <mxGeometry x="190" y="200" width="120" height="60" as="geometry"/>
                </mxCell>
                <mxCell id="HK7oCtvw7YqfgjNsX2Im-37" style="edgeStyle=orthogonalEdgeStyle;rounded=0;orthogonalLoop=1;jettySize=auto;html=1;fontFamily=Helvetica;fontSize=12;entryX=0.5;entryY=0;entryDx=0;entryDy=0;entryPerimeter=0;" parent="1" source="HK7oCtvw7YqfgjNsX2Im-27" target="HK7oCtvw7YqfgjNsX2Im-38" edge="1">
                    <mxGeometry relative="1" as="geometry">
                        <mxPoint x="120" y="480" as="targetPoint"/>
                    </mxGeometry>
                </mxCell>
                <mxCell id="7" style="edgeStyle=none;html=1;entryX=0.5;entryY=0;entryDx=0;entryDy=0;" edge="1" parent="1" source="HK7oCtvw7YqfgjNsX2Im-27" target="HK7oCtvw7YqfgjNsX2Im-34">
                    <mxGeometry relative="1" as="geometry"/>
                </mxCell>
                <mxCell id="HK7oCtvw7YqfgjNsX2Im-27" value="_ &amp;lt; t" style="rhombus;whiteSpace=wrap;html=1;strokeWidth=2;rounded=1;arcSize=12;" parent="1" vertex="1">
                    <mxGeometry x="210" y="290" width="80" height="80" as="geometry"/>
                </mxCell>
                <mxCell id="6" style="edgeStyle=none;html=1;entryX=1;entryY=0.5;entryDx=0;entryDy=0;" edge="1" parent="1" source="HK7oCtvw7YqfgjNsX2Im-30" target="HK7oCtvw7YqfgjNsX2Im-27">
                    <mxGeometry relative="1" as="geometry"/>
                </mxCell>
                <mxCell id="HK7oCtvw7YqfgjNsX2Im-30" value="_ += 1" style="whiteSpace=wrap;html=1;strokeWidth=2;rounded=1;arcSize=12;" parent="1" vertex="1">
                    <mxGeometry x="380" y="300" width="120" height="60" as="geometry"/>
                </mxCell>
                <mxCell id="9" style="edgeStyle=none;html=1;entryX=0.5;entryY=1;entryDx=0;entryDy=0;" edge="1" parent="1" source="HK7oCtvw7YqfgjNsX2Im-33" target="HK7oCtvw7YqfgjNsX2Im-30">
                    <mxGeometry relative="1" as="geometry"/>
                </mxCell>
                <mxCell id="HK7oCtvw7YqfgjNsX2Im-33" value="a, b" style="shape=parallelogram;html=1;strokeWidth=2;perimeter=parallelogramPerimeter;whiteSpace=wrap;rounded=1;arcSize=12;size=0.23;fontFamily=Helvetica;fontSize=12;" parent="1" vertex="1">
                    <mxGeometry x="390" y="450" width="100" height="60" as="geometry"/>
                </mxCell>
                <mxCell id="8" style="edgeStyle=none;html=1;" edge="1" parent="1" source="HK7oCtvw7YqfgjNsX2Im-34" target="HK7oCtvw7YqfgjNsX2Im-33">
                    <mxGeometry relative="1" as="geometry"/>
                </mxCell>
                <mxCell id="HK7oCtvw7YqfgjNsX2Im-34" value="a + b - 3" style="whiteSpace=wrap;html=1;strokeWidth=2;rounded=1;arcSize=12;" parent="1" vertex="1">
                    <mxGeometry x="190" y="450" width="120" height="60" as="geometry"/>
                </mxCell>
                <mxCell id="HK7oCtvw7YqfgjNsX2Im-38" value="end" style="strokeWidth=2;html=1;shape=mxgraph.flowchart.terminator;whiteSpace=wrap;fontFamily=Helvetica;fontSize=12;" parent="1" vertex="1">
                    <mxGeometry x="70" y="500" width="100" height="60" as="geometry"/>
                </mxCell>
                <mxCell id="HK7oCtvw7YqfgjNsX2Im-39" value="N" style="text;html=1;align=center;verticalAlign=middle;resizable=0;points=[];autosize=1;strokeColor=none;fillColor=none;fontSize=12;fontFamily=Helvetica;" parent="1" vertex="1">
                    <mxGeometry x="190" y="300" width="20" height="20" as="geometry"/>
                </mxCell>
                <mxCell id="HK7oCtvw7YqfgjNsX2Im-40" value="Y" style="text;html=1;align=center;verticalAlign=middle;resizable=0;points=[];autosize=1;strokeColor=none;fillColor=none;fontSize=12;fontFamily=Helvetica;" parent="1" vertex="1">
                    <mxGeometry x="290" y="300" width="20" height="20" as="geometry"/>
                </mxCell>
            </root>
        </mxGraphModel>
    </diagram>
</mxfile>